<?xml version="1.0" encoding="utf-8"?>
<!-- Generator: Adobe Illustrator 25.2.0, SVG Export Plug-In . SVG Version: 6.00 Build 0)  -->
<svg version="1.1" id="Layer_1" xmlns="http://www.w3.org/2000/svg" xmlns:xlink="http://www.w3.org/1999/xlink" x="0px" y="0px"
	 viewBox="0 0 514.5 121.6" style="enable-background:new 0 0 514.5 121.6;" xml:space="preserve">
<style type="text/css">
	.st0{fill:#034EA2;}
	.st1{fill:#E4B477;}
</style>
<g>
	<path class="st0" d="M164.8,76.4v4h-11.7c-2.1,0-3,1.1-3,2.7c0,1.4,0.7,2.7,3.4,2.7h5.3c6.2,0,7.7,3.4,7.7,6.7
		c0,3.8-2.1,6.7-7.3,6.7h-12.7v-4h12.8c2.2,0,3.1-1.2,3.1-2.8c0-1.5-0.8-2.8-3.6-2.8h-5.3c-6.1,0-7.5-3.4-7.5-6.6
		c0-3.8,2-6.6,7.1-6.6H164.8z"/>
	<path class="st0" d="M181.1,81.4c4.5,0,6.2,2.5,6.2,5.9v8.4c0,2.6-0.7,3.6-3.7,3.6h-8.3c-4.2,0-6-2.1-6-5.4c0-3.2,1.6-5.1,6-5.1
		h8.5v-1.4c0-1.4-0.8-2.5-2.7-2.5h-10.7v-3.4H181.1z M183.8,94.8v-3.3h-8.4c-1.9,0-2.6,0.8-2.6,2.1c0,1.3,0.7,2.2,2.5,2.2h7.5
		C183.5,95.8,183.8,95.5,183.8,94.8"/>
	<path class="st0" d="M209.4,81.4l-10.7,25h-3.9l3.3-7.8c-2,0-2.7-0.6-3.3-2.2l-6-15h3.8l5.4,13.3c0.2,0.6,0.4,0.7,1.1,0.7h0.5l6-14
		H209.4z"/>
	<path class="st0" d="M225.3,73.7v2.9h-0.4c-0.9,0-1.3,0.4-1.3,1.5v5.9h-3.9v-5.5c0-3.2,1.4-4.8,4.4-4.8H225.3z M233.1,73.7v2.9
		h-0.4c-0.9,0-1.3,0.4-1.3,1.5v5.9h-3.9v-5.5c0-3.2,1.4-4.8,4.4-4.8H233.1z"/>
	<polygon class="st0" points="239.3,76.4 245.7,86.2 252.2,76.4 256.9,76.4 247.7,89.4 247.7,99.2 243.7,99.2 243.7,89.4 
		234.5,76.4 	"/>
	<path class="st0" d="M258.5,99.2h-4.4l8-20.3c0.8-2.1,2.4-2.9,4.8-2.9c2.4,0,3.9,0.8,4.7,2.9l7.7,20.3h-4.4l-6.9-18.3
		c-0.2-0.5-0.6-0.8-1.1-0.8c-0.5,0-0.9,0.2-1.1,0.8L258.5,99.2z"/>
	<path class="st0" d="M299.7,76.4v4H288c-2.1,0-3,1.1-3,2.7c0,1.4,0.7,2.7,3.4,2.7h5.3c6.2,0,7.7,3.4,7.7,6.7c0,3.8-2.1,6.7-7.3,6.7
		h-12.7v-4h12.8c2.2,0,3.1-1.2,3.1-2.8c0-1.5-0.8-2.8-3.6-2.8h-5.3c-6.1,0-7.5-3.4-7.5-6.6c0-3.8,2-6.6,7.1-6.6H299.7z"/>
	<path class="st0" d="M308.9,73.7v5.5c0,3.2-1.4,4.8-4.4,4.8h-1.2V81h0.4c0.9,0,1.3-0.4,1.3-1.5v-5.9H308.9z M316.7,73.7v5.5
		c0,3.2-1.4,4.8-4.4,4.8h-1.2V81h0.4c0.9,0,1.3-0.4,1.3-1.5v-5.9H316.7z"/>
	<path class="st0" d="M329.6,81.4v-4.2h3.6v4.2h4.9v3.4h-4.9v8.4c0,2,0.7,2.7,2.4,2.7h2.5v3.3h-3.2c-3.7,0-5.3-1.5-5.3-6.1v-8.2
		h-2.4v-3.4H329.6z"/>
	<path class="st0" d="M351.7,81.4c4.7,0,7.7,2.9,7.7,8.9c0,6-3,8.9-7.7,8.9h-3.8c-4.8,0-7.7-2.9-7.7-8.9c0-6,3-8.9,7.7-8.9H351.7z
		 M348.3,84.8c-3.1,0-4.5,1.6-4.5,5.5c0,3.8,1.4,5.4,4.5,5.4h3.1c3.1,0,4.5-1.6,4.5-5.4c0-3.9-1.4-5.5-4.5-5.5H348.3z"/>
	<polygon class="st0" points="375.7,76.4 375.7,85.7 387.3,85.7 387.3,76.4 391.3,76.4 391.3,99.2 387.3,99.2 387.3,89.7 
		375.7,89.7 375.7,99.2 371.7,99.2 371.7,76.4 	"/>
	<path class="st0" d="M406.7,81.4c4.7,0,7.7,2.9,7.7,8.9c0,6-3,8.9-7.7,8.9h-3.8c-4.8,0-7.7-2.9-7.7-8.9c0-6,3-8.9,7.7-8.9H406.7z
		 M403.3,84.8c-3.1,0-4.5,1.6-4.5,5.5c0,3.8,1.4,5.4,4.5,5.4h3.1c3.1,0,4.5-1.6,4.5-5.4c0-3.9-1.4-5.5-4.5-5.5H403.3z"/>
	<rect x="418.1" y="73.7" class="st0" width="3.6" height="25.6"/>
	<path class="st0" d="M429.8,78.8h-3.6v-4.2h3.6V78.8z M429.8,99.2h-3.6V81.4h3.6V99.2z"/>
	<path class="st0" d="M452.7,73.7v17.9c0,5.1-2.3,7.6-6.6,7.6h-4.9c-4.8,0-7.7-2.9-7.7-8.9c0-6,3-8.9,7.7-8.9h7.9v-7.7H452.7z
		 M449.1,91.4v-6.6h-7.5c-3.1,0-4.5,1.6-4.5,5.5c0,3.8,1.4,5.4,4.5,5.4h3.5C447.9,95.8,449.1,94.5,449.1,91.4"/>
	<path class="st0" d="M468.6,81.4c4.5,0,6.2,2.5,6.2,5.9v8.4c0,2.6-0.7,3.6-3.7,3.6h-8.3c-4.2,0-6-2.1-6-5.4c0-3.2,1.6-5.1,6-5.1
		h8.5v-1.4c0-1.4-0.8-2.5-2.7-2.5h-10.7v-3.4H468.6z M471.3,94.8v-3.3h-8.4c-1.9,0-2.6,0.8-2.6,2.1c0,1.3,0.7,2.2,2.5,2.2h7.5
		C471,95.8,471.3,95.5,471.3,94.8"/>
	<path class="st0" d="M496.9,81.4l-10.7,25h-3.9l3.3-7.8c-2,0-2.7-0.6-3.3-2.2l-6-15h3.8l5.4,13.3c0.2,0.6,0.4,0.7,1.1,0.7h0.5l6-14
		H496.9z"/>
	<path class="st0" d="M513.8,81.4v3.4h-9.9c-1.7,0-2.3,0.7-2.3,2c0,1.2,0.5,1.9,2.5,1.9h4.2c4.9,0,6.2,2.3,6.2,5
		c0,3.2-1.7,5.4-5.8,5.4h-10.4v-3.5h10.4c1.7,0,2.3-0.6,2.3-2c0-1.4-0.7-2-2.5-2h-4.2c-4.9,0-6.1-2.5-6.1-5.2c0-3.2,1.7-5.2,5.8-5.2
		H513.8z"/>
	<polygon class="st0" points="138.7,16.1 151.6,35.8 164.6,16.1 174.2,16.1 155.6,42.2 155.6,62.1 147.5,62.1 147.5,42.2 129,16.1 	
		"/>
	<path class="st0" d="M177.3,62.1h-8.9l16.1-40.9c1.7-4.3,4.8-5.9,9.7-5.9c4.8,0,7.9,1.6,9.5,5.9l15.5,40.9h-8.9l-14-37
		c-0.4-1.1-1.2-1.6-2.2-1.6c-1.1,0-1.8,0.5-2.3,1.6L177.3,62.1z"/>
	<path class="st0" d="M260.5,16.1v8h-23.6c-4.2,0-6,2.2-6,5.4c0,2.8,1.4,5.5,6.8,5.5h10.8C261,35,264,42,264,48.6
		c0,7.8-4.2,13.5-14.6,13.5h-25.6v-8h25.9c4.4,0,6.3-2.4,6.3-5.7c0-3-1.6-5.7-7.2-5.7H238c-12.3,0-15.1-6.9-15.1-13.3
		c0-7.6,4.1-13.2,14.3-13.2H260.5z"/>
	<polygon class="st0" points="320,16.1 320,24.1 306.6,24.1 306.6,62.1 298.5,62.1 298.5,24.1 285,24.1 285,16.1 	"/>
	<path class="st0" d="M350.3,16.1c13.4,0,20.8,7.6,20.8,23.1c0,15.4-7.4,22.9-20.8,22.9h-6.3c-13.4,0-20.8-7.5-20.8-22.9
		c0-15.5,7.4-23.1,20.8-23.1H350.3z M344.1,24.1c-8.9,0-12.7,4.5-12.7,15.1c0,10.5,3.8,14.9,12.7,14.9h6.3c8.9,0,12.7-4.4,12.7-14.9
		c0-10.5-3.8-15-12.7-15H344.1z"/>
	<path class="st0" d="M387.2,16.1v30.7c0,4.6,2.3,7.2,7.6,7.2h8.2c5.2,0,7.6-2.7,7.6-7.2V16.1h7.9v31.3c0,9.7-5.1,14.6-14.9,14.6
		h-9.7c-9.8,0-14.9-5-14.9-14.6V16.1H387.2z"/>
	<path class="st0" d="M452.9,16.1c10.4,0,14.8,6.4,14.8,13.8c0,5.7-2.7,11.9-9.7,13.8l10.7,18.4h-8.9l-10.5-17.8h-12
		c-0.7,0-1.2,0.3-1.2,1.2v16.6h-8V43.9c0-5.2,2.2-7.3,7.2-7.3h17.9c4.6,0,6.4-3.1,6.4-6.4c0-3.3-2-6.1-6.4-6.1h-25.2v-8H452.9z"/>
	<path class="st0" d="M511,16.1v8h-23.6c-4.2,0-6,2.2-6,5.4c0,2.8,1.4,5.5,6.8,5.5H499c12.5,0,15.5,6.9,15.5,13.6
		c0,7.8-4.2,13.5-14.7,13.5h-25.6v-8h25.9c4.4,0,6.3-2.4,6.3-5.7c0-3-1.6-5.7-7.2-5.7h-10.7c-12.3,0-15.1-6.9-15.1-13.3
		c0-7.6,4.1-13.2,14.3-13.2H511z"/>
	<path class="st0" d="M121.6,60.8c0,33.6-27.2,60.8-60.8,60.8C27.2,121.6,0,94.4,0,60.8S27.2,0,60.8,0C94.4,0,121.6,27.2,121.6,60.8
		"/>
	<path class="st1" d="M31.4,85c0.1-0.1,0.1-0.2,0.2-0.3c5.4-8.8,10.8-17.6,16.3-26.4c7.6-12.4,15.3-24.8,22.9-37.3
		c0.3-0.6,0.8-1,1.5-1.1c0.8-0.2,1.5,0.1,2.1,0.8c0.5,0.7,0.6,1.4,0.3,2.1c-0.1,0.2-0.2,0.3-0.3,0.5C68.5,32.6,62.7,42,57,51.3
		c-6,9.8-12.1,19.6-18.1,29.5c-0.1,0.1-0.1,0.2-0.2,0.4c0.2,0,0.3,0,0.4,0c0.9,0,1.8,0,2.7,0c0.3,0,0.4-0.1,0.5-0.3
		c3.9-6.4,7.8-12.7,11.7-19.1c5.1-8.3,10.2-16.5,15.3-24.8c0.1-0.1,0.1-0.2,0.2-0.3c0,0,0,0,0,0c0,0,0,0,0,0
		c3.3,8.1,6.6,16.2,9.8,24.3c0,0,0,0.1,0,0.2c-1.3,0.2-2.6,0.4-3.9,0.7c-2.2-5.4-4.3-10.9-6.5-16.4c-0.1,0.1-0.2,0.2-0.2,0.3
		c-1.6,2.6-3.2,5.3-4.9,7.9C57.4,64,51,74.4,44.7,84.8c-0.1,0.2-0.2,0.3-0.5,0.3c-4.2,0-8.3,0-12.5,0H31.4z"/>
	<path class="st1" d="M66.5,81.5c2.8-0.1,5.4,0.9,7.6,2.9c2,1.8,3.3,4.1,3.7,6.8c0.6,3.8-0.5,7.2-3.2,10c-1,1-2.1,1.8-3.4,2.4
		c-0.5,0.2-1.1,0.3-1.6,0.4c-5.8,1.3-11.6,2.6-17.4,3.8c-4.2,0.9-8.4,1.8-12.6,2.7c-1.2,0.3-2.4-0.3-2.8-1.4c-0.6-1.4,0.2-3,1.7-3.3
		c1.7-0.4,3.4-0.7,5-1.1c3.7-0.8,7.4-1.6,11.1-2.4c3.3-0.7,6.6-1.4,9.9-2.1c1.2-0.3,2.4-0.5,3.6-0.8c1.1-0.3,2-0.8,2.8-1.6
		c1.2-1.1,1.9-2.5,2.1-4.1c0.3-2.8-1.1-5.4-3.5-6.7c-1.2-0.7-2.5-1-3.9-0.8c-1.1,0.1-2.1,0-3.2-0.3c-3.8-1.3-6.2-3.8-7-7.7
		c-1-4.5,1.1-8.9,5-11.1c0.8-0.4,1.6-0.6,2.5-0.8c2.5-0.4,4.9-0.9,7.4-1.3c2.5-0.4,5-0.9,7.5-1.3c2.1-0.4,4.3-0.7,6.4-1.1
		c1.9-0.3,3.8-0.7,5.7-1c1.9-0.3,3.8-0.6,5.6-1c0.5-0.1,0.9-0.2,1.4-0.2c0.3,0,0.5,0.1,0.5,0.4c0,0.3-0.1,0.5-0.4,0.5
		c-0.5,0.1-0.9,0.2-1.4,0.2c-0.7,0.1-1.3,0.2-2,0.3c-0.3,0-0.4,0.2-0.5,0.5c0,0.2,0.1,0.4,0.3,0.5c0.1,0,0.2,0,0.3,0
		c1-0.2,2.1-0.4,3.1-0.5c0.1,0,0.2,0,0.3,0c0.2,0,0.4,0.1,0.4,0.4c0,0.2-0.1,0.4-0.3,0.5c-0.1,0-0.3,0.1-0.5,0.1
		c-0.6,0.1-1.1,0.2-1.7,0.3c-0.1,0-0.1,0-0.2,0c-0.3,0.1-0.4,0.3-0.4,0.6s0.2,0.4,0.5,0.4c0.2,0,0.4-0.1,0.7-0.1
		c0.5-0.1,1-0.2,1.5-0.3c0.3-0.1,0.5,0.1,0.6,0.4c0.1,0.3-0.1,0.5-0.4,0.6c-1.4,0.2-2.8,0.5-4.2,0.7c-2,0.3-4,0.7-6,1
		c-1.8,0.3-3.7,0.6-5.5,0.9c-1.9,0.3-3.7,0.6-5.6,0.9c-1.8,0.3-3.7,0.6-5.5,0.9c-2,0.3-4,0.7-6,1c-0.6,0.1-1.1,0.2-1.7,0.5
		c-1.8,0.9-2.9,2.4-3.1,4.4c-0.3,2.7,1.6,5.5,4.6,5.9C65.3,81.6,65.8,81.5,66.5,81.5"/>
	<path class="st1" d="M73.3,10.9h1.4c-0.1,0.2-25.5,41.7-25.8,42C41.3,43.8,33.6,34.8,26,25.7c0.1,0,0.2,0,0.3,0c1.6,0,3.3,0,4.9,0
		c0.2,0,0.3,0.1,0.4,0.2c1.9,2.3,3.9,4.6,5.8,6.9c4.2,5.1,8.5,10.1,12.7,15.2c0.1,0.1,0.1,0.1,0.2,0.2C58,35.7,65.6,23.3,73.3,10.9"
		/>
	<path class="st1" d="M85.8,77.1c-1.3,0.2-2.7,0.5-4,0.7c-0.9-2.3-1.8-4.6-2.8-7c1.3-0.2,2.6-0.4,4-0.7C84,72.5,84.9,74.8,85.8,77.1
		"/>
	<path class="st1" d="M102.2,62.2c0,0.2-0.1,0.4-0.4,0.5c-0.3,0.1-0.7,0.1-1,0.2c-0.2,0-0.5-0.2-0.5-0.4c-0.1-0.3,0.1-0.5,0.3-0.6
		c0.4-0.1,0.7-0.2,1.1-0.2C102,61.6,102.2,61.9,102.2,62.2"/>
	<path class="st1" d="M99,64.1c-0.3,0-0.5-0.2-0.6-0.4c-0.1-0.3,0.1-0.5,0.3-0.6c0.3-0.1,0.7-0.1,1-0.2c0.3,0,0.5,0.2,0.5,0.4
		c0,0.3-0.1,0.5-0.4,0.6C99.7,64,99.3,64.1,99,64.1"/>
	<path class="st1" d="M98.4,62.3c-0.3,0-0.6-0.2-0.6-0.4c0-0.3,0.1-0.5,0.4-0.6c0.3-0.1,0.6-0.1,0.9-0.2c0.3,0,0.5,0.1,0.6,0.4
		c0,0.3-0.1,0.5-0.4,0.6C99,62.2,98.6,62.3,98.4,62.3"/>
</g>
</svg>
