<?xml version="1.0" encoding="utf-8"?>
<!-- Generator: Adobe Illustrator 25.2.0, SVG Export Plug-In . SVG Version: 6.00 Build 0)  -->
<svg version="1.1" id="Layer_1" xmlns="http://www.w3.org/2000/svg" xmlns:xlink="http://www.w3.org/1999/xlink" x="0px" y="0px"
	 viewBox="0 0 121.9 122.9" style="enable-background:new 0 0 121.9 122.9;" xml:space="preserve">
<style type="text/css">
	.st0{fill-rule:evenodd;clip-rule:evenodd;fill:#089848;}
</style>
<path class="st0" d="M32.8,0C14.7,0,0,14.7,0,32.8c0,18.1,14.7,32.8,32.8,32.8c18.1,0,32.8-14.7,32.8-32.8C65.6,14.7,50.9,0,32.8,0z
	 M38.9,33.4v15.8H26.4V33.4h-11l17.4-16.9l17.4,16.9H38.9z"/>
<path class="st0" d="M105,46.4c0,3-1.2,5.7-3.1,7.6c-2,2-4.6,3.1-7.6,3.1c-3,0-5.7-1.2-7.6-3.1c-2-2-3.1-4.6-3.1-7.6
	s1.2-5.7,3.1-7.6c2-2,4.6-3.1,7.6-3.1c2.9,0,5.7,1.2,7.6,3.1C103.8,40.8,105,43.4,105,46.4z"/>
<path class="st0" d="M121.9,26.1v89.4c0,2.1-0.8,3.9-2.2,5.2c-1.3,1.3-3.2,2.2-5.2,2.2h-90c-2,0-3.9-0.8-5.2-2.2
	c-1.3-1.3-2.2-3.2-2.2-5.2v-44c2.5,1,5,1.8,7.7,2.3V94h0c6.5-6.2,11.8-10.8,17.1-15.1c5.4-4.4,10.7-8.5,17.1-13.7
	c0,0,0.1,0.1,0.1,0.2c0,0,0,0.1,0.1,0.1l26.8,31.7l4.1-25.2c0.3-1.6,1.8-2.7,3.4-2.5c0.6,0.1,1.2,0.4,1.6,0.8L114.1,90V27.9
	c0-0.4-0.2-0.8-0.4-1c-0.2-0.2-0.6-0.4-1-0.4H74c-0.4-2.7-1.1-5.3-2-7.8h42.4c2,0,3.9,0.8,5.2,2.2C121,22.2,121.9,24.1,121.9,26.1z"
	/>
</svg>
