<?xml version="1.0" encoding="UTF-8"?>
<svg id="Layer_2" data-name="Layer 2" xmlns="http://www.w3.org/2000/svg" version="1.1" viewBox="0 0 612.2 446.6">
  <defs>
    <style>
      .cls-1 {
        fill: #f2f7fc;
      }

      .cls-1, .cls-2, .cls-3, .cls-4 {
        stroke-width: 0px;
      }

      .cls-2 {
        fill: #000;
      }

      .cls-5 {
        fill: #fff;
      }

      .cls-5, .cls-6 {
        stroke: #003177;
      }

      .cls-5, .cls-6, .cls-7, .cls-8, .cls-9 {
        stroke-miterlimit: 10;
      }

      .cls-5, .cls-7 {
        stroke-width: 4px;
      }

      .cls-6, .cls-7, .cls-8, .cls-9 {
        fill: none;
      }

      .cls-6, .cls-8, .cls-9 {
        stroke-width: 3px;
      }

      .cls-7 {
        stroke: #002149;
      }

      .cls-8 {
        stroke: #feb200;
      }

      .cls-9 {
        stroke: #000;
        stroke-linecap: round;
      }

      .cls-3 {
        fill: #bdf;
      }

      .cls-4 {
        fill: #003177;
      }
    </style>
  </defs>
  <path class="cls-1" d="M516.6,186.5c29.2,24.5,33.6,79,23.2,116-6.7,23.9-19.3,39.7-22.2,43.1-54.4,65.9-181,60-263.8,33.9-13.4-4.2-29.9-10.3-48.5-19.5C123.5,319.7,25.4,231.7,44.9,164.9c8.6-29.4,39.6-53.4,69.6-57.5,31.8-4.4,58.7,14.1,77,26.7,34.3,23.6,36.9,42,55.1,57.2,68.8,57.4,207.6-57.1,269.9-4.8Z"/>
  <path class="cls-3" d="M168.9,153.7l.7-2.1,7.8-24.8s2.6-5.8,13.2-5.8,262.8,1.1,262.8,1.1c0,0,16.4-2.1,14.2,18.5s-19.5,124.5-19.5,124.5l-289.7-69.6,10.6-41.7Z"/>
  <path class="cls-5" d="M422.6,179.6h-5.6s-120.3,1.4-129.8,1.1c-9.5-.4-12.7-6-12.7-6,0,0-12-23.2-15.5-30.6-3.5-7.4-14.5-5.4-14.5-5.4h-93.8c-7.6,0-13.9,6.2-13.9,13.9v188.4c0,7.6,6.2,13.9,13.9,13.9h269.9c7.6,0,13.9-6.2,13.9-13.9v-152.5s-2.4-10.2-11.9-8.8Z"/>
  <circle class="cls-5" cx="379" cy="266.1" r="79.1"/>
  <line class="cls-7" x1="435.7" y1="322.7" x2="452" y2="339.1"/>
  <rect class="cls-4" x="472.8" y="325.2" width="22.9" height="90.3" rx="10.7" ry="10.7" transform="translate(-120.1 450.9) rotate(-45)"/>
  <rect class="cls-5" x="216.4" y="71.1" width="194.9" height="153.5" rx="13.7" ry="13.7" transform="translate(86.3 -114.1) rotate(23.8)"/>
  <path class="cls-9" d="M288.6,137.7c5.7-8.1,15-13.4,25.7-13.4,17.3,0,31.3,14,31.3,31.3s-.4,5.5-1.1,8.1"/>
  <circle class="cls-2" cx="365.7" cy="126.1" r="4.6"/>
  <circle class="cls-2" cx="302" cy="98.7" r="4.6"/>
  <line class="cls-8" x1="471.2" y1="70.9" x2="471.2" y2="94.1"/>
  <line class="cls-8" x1="459.6" y1="82.6" x2="482.8" y2="82.4"/>
  <line class="cls-6" x1="172.6" y1="59.3" x2="172.6" y2="82.5"/>
  <line class="cls-6" x1="160.9" y1="71" x2="184.2" y2="70.8"/>
  <line class="cls-8" x1="71.2" y1="310.4" x2="71.2" y2="333.7"/>
  <line class="cls-8" x1="59.6" y1="322.1" x2="82.9" y2="322"/>
</svg>