<?xml version="1.0" encoding="utf-8"?>
<!-- Generator: Adobe Illustrator 25.2.0, SVG Export Plug-In . SVG Version: 6.00 Build 0)  -->
<svg version="1.1" id="Layer_1" xmlns="http://www.w3.org/2000/svg" xmlns:xlink="http://www.w3.org/1999/xlink" x="0px" y="0px"
	 viewBox="0 0 33.6 37.1" style="enable-background:new 0 0 33.6 37.1;" xml:space="preserve">
<style type="text/css">
	.st0{fill:#FFFFFF;filter:url(#Adobe_OpacityMaskFilter);}
	.st1{mask:url(#mask0_1096_1791_1_);}
	.st2{opacity:0.38;}
	.st3{fill:#66142E;fill-opacity:0.3;}
	.st4{fill:#66142E;}
	.st5{fill:#D3623B;}
	.st6{fill:#FFFFFF;}
	.st7{fill:#E67E22;}
	.st8{fill:#66142E;fill-opacity:0.5;}
	.st9{fill:#1EBC61;}
	.st10{fill:#4EEC91;}
	.st11{fill:#1EBC61;filter:url(#Adobe_OpacityMaskFilter_1_);}
	.st12{mask:url(#mask1_1096_1791_1_);}
	.st13{fill-opacity:0.3;}
	.st14{fill:#66142E;fill-opacity:0.4;}
	.st15{fill:#FFFFFF;filter:url(#Adobe_OpacityMaskFilter_2_);}
	.st16{mask:url(#mask2_1096_1791_1_);}
	.st17{fill:#FFD736;}
	.st18{fill:#FCAB00;}
	.st19{fill:#752A00;}
	.st20{fill:#FFFFFF;filter:url(#Adobe_OpacityMaskFilter_3_);}
	.st21{mask:url(#mask3_1096_1791_1_);}
</style>
<defs>
	<filter id="Adobe_OpacityMaskFilter" filterUnits="userSpaceOnUse" x="0" y="0" width="33.6" height="37.1">
		<feColorMatrix  type="matrix" values="1 0 0 0 0  0 1 0 0 0  0 0 1 0 0  0 0 0 1 0"/>
	</filter>
</defs>
<mask maskUnits="userSpaceOnUse" x="0" y="0" width="33.6" height="37.1" id="mask0_1096_1791_1_">
	<path class="st0" d="M43.1-7.9h-55v55h55V-7.9z"/>
</mask>
<g class="st1">
	<g class="st2">
		<path class="st3" d="M26.4,35.7c0,0.7-4.4,1.3-9.9,1.3s-9.9-0.6-9.9-1.3c0-0.7,4.4-1.3,9.9-1.3S26.4,35,26.4,35.7z"/>
	</g>
	<g class="st2">
		<path class="st3" d="M33,35.7c0,0.2-1.5,0.4-3.3,0.4c-1.8,0-3.3-0.2-3.3-0.4c0-0.2,1.5-0.4,3.3-0.4C31.5,35.3,33,35.5,33,35.7z"/>
	</g>
	<g class="st2">
		<path class="st3" d="M6.7,35.7c0,0.2-1.5,0.4-3.3,0.4S0.1,36,0.1,35.7c0-0.2,1.5-0.4,3.3-0.4S6.7,35.5,6.7,35.7z"/>
	</g>
	<path class="st4" d="M5.4,11.6h4.1l0.2,0.8L5.4,11.6z"/>
	<path class="st4" d="M12.2,13.1h0.2h1.1h8.8h1.1h1.9c1.5,0,1.8-0.5,1.5-1.1c-0.5-0.6-1.7-0.6-3.1-0.3L12.2,13.1z"/>
	<path class="st5" d="M26.7,10.5H4.9c-0.5,0-1,0.3-1.3,0.7c0,0,0,0.1,0,0.1l2.2,0.3h19.8c0.7,0,1.3,0.5,1.5,1.2v0l0,0
		c0,0.1,0.1,0.3,0.1,0.4v13.3c0,0.2,0,0.3-0.1,0.5c-0.2,0.4-0.5,0.8-0.9,1l0,0.1c1.4-0.3,2.2-0.8,2.1-2.6V12.1
		C28.3,11.2,27.6,10.5,26.7,10.5z"/>
	<path class="st6" d="M28.3,12.1v0.4c0-0.9-0.7-1.6-1.6-1.6H4.9c-0.5,0-1,0.3-1.3,0.7c0,0.1-0.1,0.1-0.1,0.2c0-0.2,0-0.4,0.1-0.6
		c0.3-0.4,0.8-0.7,1.3-0.7h21.8C27.6,10.5,28.3,11.2,28.3,12.1z"/>
	<path class="st7" d="M25.6,17.3c0-0.4-0.2-0.8-0.5-1.1c-0.2-0.2-0.5-0.3-0.7-0.4L5,11.5l20.6,0c0.5,0,1,0.2,1.3,0.6
		c0.2,0.3,0.4,0.7,0.4,1v13.3c0,0.2,0,0.4-0.1,0.5c-0.2,0.5-0.5,0.8-1,1C26,28,25.8,28,25.6,28l0,0V17.3z"/>
	<path class="st8" d="M28.3,12.3v13.1c0,1.8-0.7,2.2-2.1,2.5c0.4-0.2,0.8-0.5,1-1c0.1-0.2,0.1-0.3,0.1-0.5V13.1c0-0.1,0-0.3-0.1-0.4
		v0C27.2,11.6,28,10.8,28.3,12.3z"/>
	<path class="st4" d="M26.7,10.3H4.9c-0.6,0-1.1,0.3-1.5,0.8c0,0,0,0,0,0c0,0,0,0.1,0,0.1l0.4,0.1c0,0,0,0,0,0
		c0.3-0.4,0.7-0.6,1.1-0.6h21.8c0.8,0,1.4,0.6,1.4,1.4v13.3c0,1.1-0.3,1.7-0.9,2c0.1-0.1,0.1-0.2,0.2-0.4c0.1-0.2,0.1-0.4,0.1-0.6
		V13.1c0-1-0.8-1.8-1.8-1.8H5.1c-0.1,0-0.2,0.1-0.2,0.1L7,11.7h18.6c0.8,0,1.4,0.6,1.4,1.4v13.3c0,0.2,0,0.3-0.1,0.5
		c-0.1,0.4-0.4,0.7-0.8,0.9C26,27.8,26,27.9,26,28c0,0.1,0.1,0.2,0.2,0.1c1.5-0.3,2.3-0.9,2.3-2.7V12.1
		C28.5,11.1,27.7,10.3,26.7,10.3z"/>
	<path class="st9" d="M12.8,24.4c-0.5,0-0.9-0.4-1-0.9L7.9,4.8C7.8,4.5,7.9,4.2,8.1,4c0.2-0.2,0.4-0.4,0.7-0.5l8.8-1.8
		c0.1,0,0.1,0,0.2,0c0.5,0,0.9,0.4,1,0.9l3.9,18.7c0.1,0.6-0.3,1.1-0.8,1.3L13,24.3C13,24.4,12.9,24.4,12.8,24.4z"/>
	<path class="st4" d="M17.7,1.9c0.4,0,0.8,0.3,0.8,0.7l3.9,18.7c0.1,0.5-0.2,0.9-0.7,1L13,24.1c-0.1,0-0.1,0-0.2,0
		c-0.4,0-0.8-0.3-0.8-0.7L8.1,4.8C8,4.3,8.3,3.8,8.8,3.7l8.8-1.8C17.6,1.9,17.7,1.9,17.7,1.9z M17.7,1.5c-0.1,0-0.2,0-0.3,0L8.7,3.3
		C8,3.5,7.6,4.2,7.7,4.8l3.9,18.7c0.1,0.6,0.6,1,1.3,1c0.1,0,0.2,0,0.3,0l8.8-1.8c0.3-0.1,0.6-0.3,0.8-0.6c0.2-0.3,0.3-0.6,0.2-1
		L19,2.5C18.8,1.9,18.3,1.5,17.7,1.5z"/>
	<path class="st6" d="M8.4,4.7C8.4,4.4,8.6,4.1,8.9,4l9.3-1.9c0,0,0.1,0,0.1,0c-0.2-0.2-0.5-0.2-0.7-0.2L8.8,3.7
		C8.3,3.8,8,4.3,8.1,4.8L12,23.5c0.1,0.3,0.2,0.5,0.5,0.6c0,0,0,0,0-0.1L8.4,4.7z"/>
	<path class="st10" d="M14.3,22.6c-0.1,0-0.1,0-0.1-0.1c-0.1-0.5-0.5-0.8-1-0.8c-0.1,0-0.1,0-0.2,0c0,0,0,0,0,0
		c-0.1,0-0.1,0-0.1-0.1L9.6,6.1c0,0,0-0.1,0-0.1c0,0,0.1-0.1,0.1-0.1c0.5-0.1,0.9-0.6,0.8-1.2c0-0.1,0-0.1,0.1-0.2l5.6-1.2
		c0,0,0,0,0,0c0.1,0,0.1,0,0.1,0.1c0.1,0.5,0.5,0.8,1,0.8c0.1,0,0.1,0,0.2,0c0,0,0,0,0,0c0,0,0.1,0,0.1,0c0,0,0.1,0.1,0.1,0.1
		L20.9,20c0,0.1,0,0.1-0.1,0.2c-0.5,0.1-0.9,0.6-0.8,1.2c0,0.1,0,0.1-0.1,0.2L14.3,22.6C14.3,22.6,14.3,22.6,14.3,22.6z"/>
	<path class="st4" d="M16.2,3.6c0.1,0.5,0.6,0.9,1.1,0.9c0.1,0,0.2,0,0.2,0L20.8,20c-0.6,0.1-1,0.7-0.9,1.3l-5.6,1.2
		c-0.1-0.5-0.6-0.9-1.1-0.9c-0.1,0-0.2,0-0.2,0L9.8,6.1c0.6-0.1,1-0.7,0.9-1.3L16.2,3.6z M16.2,3.3C16.2,3.3,16.2,3.3,16.2,3.3
		l-5.6,1.2c-0.1,0-0.2,0.2-0.2,0.3c0,0.2,0,0.4-0.1,0.6c-0.1,0.2-0.3,0.3-0.5,0.4c-0.1,0-0.1,0.1-0.2,0.1c0,0.1-0.1,0.1,0,0.2
		l3.2,15.5c0,0.1,0.1,0.2,0.3,0.2c0,0,0,0,0.1,0c0.1,0,0.1,0,0.2,0c0.4,0,0.7,0.3,0.8,0.7c0,0.1,0.1,0.2,0.3,0.2c0,0,0,0,0.1,0
		l5.6-1.2c0.1,0,0.2-0.2,0.2-0.3c-0.1-0.5,0.2-0.9,0.7-1c0.1,0,0.1-0.1,0.2-0.1c0-0.1,0.1-0.1,0-0.2L17.8,4.4c0-0.1-0.1-0.2-0.3-0.2
		c0,0,0,0-0.1,0c-0.1,0-0.1,0-0.2,0c-0.4,0-0.7-0.3-0.8-0.7c0-0.1-0.1-0.1-0.1-0.2C16.3,3.3,16.3,3.3,16.2,3.3z"/>
	<path class="st9" d="M17.4,12.6c0.2,1.2-0.5,2.4-1.7,2.6c-1.2,0.2-2.4-0.5-2.6-1.7c-0.2-1.2,0.5-2.4,1.7-2.6
		C16,10.6,17.2,11.4,17.4,12.6z"/>
	<path class="st10" d="M14.8,13.8c-0.3,0-0.6-0.2-0.7-0.5l-0.4,0l0-0.5l0.3,0c0-0.3,0.1-0.5,0.1-0.6l0.4,0.1
		c-0.1,0.1-0.1,0.4-0.1,0.6c0,0.2,0.1,0.4,0.3,0.4c0.1,0,0.2-0.1,0.3-0.4c0.1-0.4,0.3-0.6,0.7-0.6c0.3,0,0.6,0.2,0.7,0.6l0.4,0
		l0,0.5l-0.3,0c0,0.2-0.1,0.3-0.1,0.4L16,13.6c0-0.1,0.1-0.3,0.1-0.5c0-0.2-0.1-0.3-0.2-0.3c-0.1,0-0.2,0.1-0.3,0.4
		C15.4,13.6,15.2,13.8,14.8,13.8z"/>
	<path class="st9" d="M13.8,6.7c-0.3,0-0.6-0.3-0.6-0.6c0-0.3,0.3-0.6,0.6-0.6c0.3,0,0.6,0.3,0.6,0.6C14.5,6.4,14.2,6.7,13.8,6.7z"
		/>
	<defs>
		<filter id="Adobe_OpacityMaskFilter_1_" filterUnits="userSpaceOnUse" x="9" y="1.6" width="15.2" height="22.8">
			<feColorMatrix  type="matrix" values="1 0 0 0 0  0 1 0 0 0  0 0 1 0 0  0 0 0 1 0"/>
		</filter>
	</defs>
	<mask maskUnits="userSpaceOnUse" x="9" y="1.6" width="15.2" height="22.8" id="mask1_1096_1791_1_">
		<path class="st11" d="M12.8,24.4c-0.5,0-0.9-0.4-1-0.9L7.9,4.8C7.8,4.5,7.9,4.2,8.1,4c0.2-0.2,0.4-0.4,0.7-0.5l8.8-1.8
			c0.1,0,0.1,0,0.2,0c0.5,0,0.9,0.4,1,0.9l3.9,18.7c0.1,0.6-0.3,1.1-0.8,1.3L13,24.3C13,24.4,12.9,24.4,12.8,24.4z"/>
		<path class="st4" d="M17.7,1.9c0.4,0,0.8,0.3,0.8,0.7l3.9,18.7c0.1,0.5-0.2,0.9-0.7,1L13,24.1c-0.1,0-0.1,0-0.2,0
			c-0.4,0-0.8-0.3-0.8-0.7L8.1,4.8C8,4.3,8.3,3.8,8.8,3.7l8.8-1.8C17.6,1.9,17.7,1.9,17.7,1.9z M17.7,1.5c-0.1,0-0.2,0-0.3,0
			L8.7,3.3C8,3.5,7.6,4.2,7.7,4.8l3.9,18.7c0.1,0.6,0.6,1,1.3,1c0.1,0,0.2,0,0.3,0l8.8-1.8c0.3-0.1,0.6-0.3,0.8-0.6
			c0.2-0.3,0.3-0.6,0.2-1L19,2.5C18.8,1.9,18.3,1.5,17.7,1.5z"/>
		<path class="st6" d="M8.4,4.7C8.4,4.4,8.6,4.1,8.9,4l9.3-1.9c0,0,0.1,0,0.1,0c-0.2-0.2-0.5-0.2-0.7-0.2L8.8,3.7
			C8.3,3.8,8,4.3,8.1,4.8L12,23.5c0.1,0.3,0.2,0.5,0.5,0.6c0,0,0,0,0-0.1L8.4,4.7z"/>
		<path class="st10" d="M14.3,22.6c-0.1,0-0.1,0-0.1-0.1c-0.1-0.5-0.5-0.8-1-0.8c-0.1,0-0.1,0-0.2,0c0,0,0,0,0,0
			c-0.1,0-0.1,0-0.1-0.1L9.6,6.1c0,0,0-0.1,0-0.1c0,0,0.1-0.1,0.1-0.1c0.5-0.1,0.9-0.6,0.8-1.2c0-0.1,0-0.1,0.1-0.2l5.6-1.2
			c0,0,0,0,0,0c0.1,0,0.1,0,0.1,0.1c0.1,0.5,0.5,0.8,1,0.8c0.1,0,0.1,0,0.2,0c0,0,0,0,0,0c0,0,0.1,0,0.1,0c0,0,0.1,0.1,0.1,0.1
			L20.9,20c0,0.1,0,0.1-0.1,0.2c-0.5,0.1-0.9,0.6-0.8,1.2c0,0.1,0,0.1-0.1,0.2L14.3,22.6C14.3,22.6,14.3,22.6,14.3,22.6z"/>
		<path class="st4" d="M16.2,3.6c0.1,0.5,0.6,0.9,1.1,0.9c0.1,0,0.2,0,0.2,0L20.8,20c-0.6,0.1-1,0.7-0.9,1.3l-5.6,1.2
			c-0.1-0.5-0.6-0.9-1.1-0.9c-0.1,0-0.2,0-0.2,0L9.8,6.1c0.6-0.1,1-0.7,0.9-1.3L16.2,3.6z M16.2,3.3C16.2,3.3,16.2,3.3,16.2,3.3
			l-5.6,1.2c-0.1,0-0.2,0.2-0.2,0.3c0,0.2,0,0.4-0.1,0.6c-0.1,0.2-0.3,0.3-0.5,0.4c-0.1,0-0.1,0.1-0.2,0.1c0,0.1-0.1,0.1,0,0.2
			l3.2,15.5c0,0.1,0.1,0.2,0.3,0.2c0,0,0,0,0.1,0c0.1,0,0.1,0,0.2,0c0.4,0,0.7,0.3,0.8,0.7c0,0.1,0.1,0.2,0.3,0.2c0,0,0,0,0.1,0
			l5.6-1.2c0.1,0,0.2-0.2,0.2-0.3c-0.1-0.5,0.2-0.9,0.7-1c0.1,0,0.1-0.1,0.2-0.1c0-0.1,0.1-0.1,0-0.2L17.8,4.4
			c0-0.1-0.1-0.2-0.3-0.2c0,0,0,0-0.1,0c-0.1,0-0.1,0-0.2,0c-0.4,0-0.7-0.3-0.8-0.7c0-0.1-0.1-0.1-0.1-0.2
			C16.3,3.3,16.3,3.3,16.2,3.3z"/>
		<path class="st9" d="M17.4,12.6c0.2,1.2-0.5,2.4-1.7,2.6c-1.2,0.2-2.4-0.5-2.6-1.7c-0.2-1.2,0.5-2.4,1.7-2.6
			C16,10.6,17.2,11.4,17.4,12.6z"/>
		<path class="st10" d="M14.8,13.8c-0.3,0-0.6-0.2-0.7-0.5l-0.4,0l0-0.5l0.3,0c0-0.3,0.1-0.5,0.1-0.6l0.4,0.1
			c-0.1,0.1-0.1,0.4-0.1,0.6c0,0.2,0.1,0.4,0.3,0.4c0.1,0,0.2-0.1,0.3-0.4c0.1-0.4,0.3-0.6,0.7-0.6c0.3,0,0.6,0.2,0.7,0.6l0.4,0
			l0,0.5l-0.3,0c0,0.2-0.1,0.3-0.1,0.4L16,13.6c0-0.1,0.1-0.3,0.1-0.5c0-0.2-0.1-0.3-0.2-0.3c-0.1,0-0.2,0.1-0.3,0.4
			C15.4,13.6,15.2,13.8,14.8,13.8z"/>
		<path class="st9" d="M13.8,6.7c-0.3,0-0.6-0.3-0.6-0.6c0-0.3,0.3-0.6,0.6-0.6c0.3,0,0.6,0.3,0.6,0.6C14.5,6.4,14.2,6.7,13.8,6.7z"
			/>
	</mask>
	<g class="st12">
		<path class="st13" d="M18.8,24.4c-0.1,0-0.2,0-0.2,0l-8.7-2C9.2,22.2,8.9,21.6,9,21l4.3-18.6c0.1-0.5,0.5-0.8,1-0.8
			c0.1,0,0.2,0,0.2,0l8.7,2c0.6,0.1,0.9,0.7,0.8,1.3l-4.3,18.6C19.7,24,19.3,24.4,18.8,24.4z"/>
	</g>
	<path class="st9" d="M20.2,23c-0.1,0-0.2,0-0.2,0l-8.7-2c-0.6-0.1-0.9-0.7-0.8-1.3L14.7,1c0.1-0.5,0.5-0.8,1-0.8c0.1,0,0.2,0,0.2,0
		l8.7,2c0.6,0.1,0.9,0.7,0.8,1.3l-4.3,18.6C21.1,22.6,20.7,23,20.2,23z"/>
	<path class="st4" d="M15.7,0.4c0.1,0,0.1,0,0.2,0l8.7,2c0.5,0.1,0.8,0.6,0.6,1L21,22.1c-0.1,0.4-0.4,0.7-0.8,0.7
		c-0.1,0-0.1,0-0.2,0l-8.7-2c-0.5-0.1-0.8-0.6-0.6-1l4.3-18.6C15,0.7,15.4,0.4,15.7,0.4z M15.7,0c-0.6,0-1.1,0.4-1.2,1l-4.3,18.6
		c-0.2,0.7,0.3,1.4,1,1.5l8.7,2c0.1,0,0.2,0,0.3,0c0.6,0,1.1-0.4,1.2-1l4.3-18.6c0.2-0.7-0.3-1.4-1-1.5L16,0C15.9,0,15.8,0,15.7,0z"
		/>
	<path class="st6" d="M15.2,1.2c0.1-0.3,0.4-0.5,0.7-0.4l9.3,2.1c0,0,0,0,0.1,0c-0.1-0.2-0.3-0.4-0.6-0.5l-8.7-2
		c-0.5-0.1-0.9,0.2-1,0.6l-4.3,18.6c-0.1,0.3,0,0.5,0.2,0.7c0,0,0-0.1,0-0.1L15.2,1.2z"/>
	<path class="st10" d="M18.7,21.2C18.7,21.2,18.7,21.2,18.7,21.2l-5.6-1.3c-0.1,0-0.1-0.1-0.1-0.2c0.1-0.5-0.2-1.1-0.7-1.2
		c0,0-0.1,0-0.1-0.1c0,0,0-0.1,0-0.1l3.6-15.4c0,0,0-0.1,0.1-0.1c0,0,0,0,0.1,0c0,0,0,0,0,0c0.1,0,0.1,0,0.2,0c0.5,0,0.8-0.3,1-0.8
		C17.1,2,17.2,2,17.2,2c0,0,0,0,0,0l5.5,1.3c0.1,0,0.1,0.1,0.1,0.2c-0.1,0.5,0.2,1.1,0.7,1.2c0.1,0,0.1,0.1,0.1,0.2l-3.6,15.4
		c0,0.1-0.1,0.1-0.1,0.1c0,0,0,0,0,0c-0.1,0-0.1,0-0.2,0c-0.5,0-0.8,0.3-1,0.8C18.8,21.1,18.7,21.2,18.7,21.2z"/>
	<path class="st4" d="M17.2,2.1l5.5,1.3C22.6,4,23,4.6,23.6,4.8L20,20.2c-0.1,0-0.2,0-0.3,0c-0.5,0-1,0.3-1.1,0.9l-5.5-1.3
		c0.1-0.6-0.2-1.2-0.8-1.3L15.9,3C16,3,16,3,16.1,3C16.6,3,17.1,2.7,17.2,2.1z M17.2,1.9c-0.1,0-0.1,0-0.1,0C17,1.9,17,2,16.9,2.1
		c-0.1,0.4-0.4,0.7-0.8,0.7c-0.1,0-0.1,0-0.2,0c0,0,0,0-0.1,0c-0.1,0-0.2,0.1-0.3,0.2L12,18.4c0,0.1,0.1,0.3,0.2,0.3
		c0.5,0.1,0.7,0.6,0.6,1c0,0.1,0.1,0.3,0.2,0.3l5.5,1.3c0,0,0,0,0.1,0c0.1,0,0.1,0,0.1,0c0.1,0,0.1-0.1,0.1-0.2
		c0.1-0.4,0.4-0.7,0.8-0.7c0.1,0,0.1,0,0.2,0c0,0,0,0,0.1,0c0.1,0,0.2-0.1,0.3-0.2l3.6-15.4c0-0.1,0-0.1,0-0.2
		c0-0.1-0.1-0.1-0.2-0.1c-0.5-0.1-0.7-0.6-0.6-1c0-0.1-0.1-0.3-0.2-0.3L17.2,1.9C17.3,1.9,17.2,1.9,17.2,1.9z"/>
	<path class="st9" d="M20.1,12.1c-0.3,1.2-1.5,1.9-2.6,1.7c-1.2-0.3-1.9-1.5-1.7-2.6c0.3-1.2,1.5-1.9,2.6-1.7
		C19.6,9.7,20.4,10.9,20.1,12.1z"/>
	<path class="st10" d="M17.2,12.1c-0.3-0.1-0.4-0.4-0.4-0.7l-0.3-0.1l0.2-0.4l0.3,0.1c0.1-0.2,0.3-0.4,0.4-0.5l0.4,0.3
		c-0.1,0.1-0.3,0.3-0.4,0.5c-0.1,0.2-0.1,0.4,0.1,0.4c0.1,0.1,0.3,0,0.5-0.2c0.3-0.3,0.6-0.4,0.9-0.3c0.3,0.1,0.4,0.4,0.4,0.8
		l0.3,0.1l-0.2,0.4l-0.3-0.1c-0.1,0.2-0.2,0.3-0.3,0.4l-0.3-0.3c0.1-0.1,0.2-0.2,0.3-0.4c0.1-0.2,0-0.4-0.1-0.4
		c-0.1-0.1-0.2,0-0.5,0.3C17.8,12.2,17.5,12.3,17.2,12.1z"/>
	<path class="st9" d="M19.3,5.3C19,5.1,18.8,4.8,19,4.4c0.1-0.3,0.5-0.5,0.8-0.3c0.3,0.1,0.5,0.5,0.3,0.8C20,5.3,19.6,5.4,19.3,5.3z
		"/>
	<path class="st7" d="M26.9,12.5C26.9,12.5,26.8,12.5,26.9,12.5c-0.2,0.4-0.7,0.5-1.1,0.5l-13.6,0.1l0.2,0l12,2.6
		c0.3,0.1,0.5,0.2,0.7,0.4c0.3,0.3,0.5,0.7,0.5,1.1V28l0,0c0.1,0,0.3,0,0.4,0c0,0,0,0,0,0c0,0,0,0,0,0c0-0.1,0-0.2,0.1-0.3
		c0.4-0.1,0.7-0.5,0.8-0.9c0.1-0.1,0.1-0.3,0.1-0.5V13.1C27,12.9,27,12.7,26.9,12.5z"/>
	<path class="st14" d="M26.1,27.7c0.4-0.1,0.7-0.5,0.8-0.9c0.1-0.1,0.1-0.3,0.1-0.5V13.1c0-0.2-0.1-0.4-0.1-0.6
		c-0.1,0.4-0.7,0.5-1.4,0.6l-0.4,0.2v2.9c0.3,0.3,0.5,0.7,0.5,1.2V28c0.1,0,0.3,0,0.4,0C26,27.9,26,27.8,26.1,27.7z"/>
	<path class="st4" d="M25.4,13.3c0,0-0.1,0-0.1,0H12.2c-0.1,0-0.2-0.1-0.2-0.2c0-0.1,0.1-0.2,0.2-0.2h13.1c1.1,0,1.3-0.2,1.4-0.3
		c0.1-0.1,0-0.3-0.1-0.4c-0.1-0.1,0-0.2,0.1-0.3c0.1-0.1,0.2,0,0.3,0.1c0.3,0.4,0.2,0.7,0.1,0.9C26.8,13.1,26.3,13.3,25.4,13.3z"/>
	<path class="st7" d="M22.8,33.2c-0.1,0-0.2,0-0.3,0c0,0,0,0,0,0L4.7,29c-0.4-0.1-0.8-0.3-1-0.7l0,0c-0.2-0.3-0.3-0.7-0.3-1V12
		c0-0.3,0.1-0.6,0.3-0.9l0.1,0c-0.1,0.3-0.1,0.5,0,0.8c0.1,0.3,0.4,0.5,0.8,0.6l18.7,4.3c0.8,0.2,1.3,0.8,1.3,1.6v13.2
		C24.4,32.5,23.7,33.2,22.8,33.2z"/>
	<path class="st6" d="M22.5,32.2C22.5,32.2,22.4,32.2,22.5,32.2L21.6,32c-0.1,0-0.1-0.1-0.1-0.2c0-0.1,0.1-0.1,0.2-0.1l0.9,0.2
		c0.1,0,0.1,0.1,0.1,0.2C22.6,32.1,22.5,32.2,22.5,32.2z M23.2,31.9C23.2,31.9,23.2,31.9,23.2,31.9c-0.1,0-0.2-0.1-0.1-0.2
		c0,0,0-0.1,0-0.2v-0.7c0-0.1,0.1-0.1,0.1-0.1c0.1,0,0.1,0.1,0.1,0.1v0.7c0,0.1,0,0.2-0.1,0.3C23.3,31.9,23.3,31.9,23.2,31.9z
		 M20.7,31.8C20.7,31.8,20.7,31.8,20.7,31.8l-0.9-0.2c-0.1,0-0.1-0.1-0.1-0.2c0-0.1,0.1-0.1,0.2-0.1l0.9,0.2c0.1,0,0.1,0.1,0.1,0.2
		C20.9,31.7,20.8,31.8,20.7,31.8z M19,31.4C19,31.4,19,31.4,19,31.4l-0.9-0.2C18,31.1,18,31.1,18,31c0-0.1,0.1-0.1,0.2-0.1l0.9,0.2
		c0.1,0,0.1,0.1,0.1,0.2C19.1,31.3,19.1,31.4,19,31.4z M17.3,31C17.3,31,17.2,31,17.3,31l-0.9-0.2c-0.1,0-0.1-0.1-0.1-0.2
		c0-0.1,0.1-0.1,0.2-0.1l0.9,0.2c0.1,0,0.1,0.1,0.1,0.2C17.4,30.9,17.3,31,17.3,31z M15.5,30.6C15.5,30.6,15.5,30.6,15.5,30.6
		l-0.9-0.2c-0.1,0-0.1-0.1-0.1-0.2c0-0.1,0.1-0.1,0.2-0.1l0.9,0.2c0.1,0,0.1,0.1,0.1,0.2C15.7,30.5,15.6,30.6,15.5,30.6z M23.3,30.2
		c-0.1,0-0.1-0.1-0.1-0.1v-0.9c0-0.1,0.1-0.1,0.1-0.1c0.1,0,0.1,0.1,0.1,0.1V30C23.4,30.1,23.4,30.2,23.3,30.2z M13.8,30.2
		C13.8,30.2,13.8,30.1,13.8,30.2l-0.9-0.2c-0.1,0-0.1-0.1-0.1-0.2c0-0.1,0.1-0.1,0.2-0.1l0.9,0.2c0.1,0,0.1,0.1,0.1,0.2
		C13.9,30.1,13.9,30.2,13.8,30.2z M12.1,29.7C12.1,29.7,12,29.7,12.1,29.7l-0.9-0.2c-0.1,0-0.1-0.1-0.1-0.2c0-0.1,0.1-0.1,0.2-0.1
		l0.9,0.2c0.1,0,0.1,0.1,0.1,0.2C12.2,29.7,12.1,29.7,12.1,29.7z M10.3,29.3C10.3,29.3,10.3,29.3,10.3,29.3l-0.9-0.2
		c-0.1,0-0.1-0.1-0.1-0.2c0-0.1,0.1-0.1,0.2-0.1l0.9,0.2c0.1,0,0.1,0.1,0.1,0.2C10.5,29.3,10.4,29.3,10.3,29.3z M8.6,28.9
		C8.6,28.9,8.6,28.9,8.6,28.9l-0.9-0.2c-0.1,0-0.1-0.1-0.1-0.2c0-0.1,0.1-0.1,0.2-0.1l0.9,0.2c0.1,0,0.1,0.1,0.1,0.2
		C8.7,28.9,8.7,28.9,8.6,28.9z M6.9,28.5C6.9,28.5,6.9,28.5,6.9,28.5L6,28.3c-0.1,0-0.1-0.1-0.1-0.2C5.9,28.1,6,28,6,28l0.9,0.2
		C7,28.3,7,28.3,7,28.4C7,28.5,6.9,28.5,6.9,28.5z M23.3,28.4c-0.1,0-0.1-0.1-0.1-0.1v-0.9c0-0.1,0.1-0.1,0.1-0.1
		c0.1,0,0.1,0.1,0.1,0.1v0.9C23.4,28.3,23.4,28.4,23.3,28.4z M5.1,28.1C5.1,28.1,5.1,28.1,5.1,28.1l-0.3-0.1c-0.2,0-0.5-0.1-0.7-0.2
		c-0.1,0-0.1-0.1-0.1-0.2c0-0.1,0.1-0.1,0.2-0.1c0.2,0.1,0.4,0.1,0.6,0.2l0.2,0.1c0.1,0,0.1,0.1,0.1,0.2C5.3,28.1,5.2,28.1,5.1,28.1
		z M23.3,26.6c-0.1,0-0.1-0.1-0.1-0.1v-0.9c0-0.1,0.1-0.1,0.1-0.1c0.1,0,0.1,0.1,0.1,0.1v0.9C23.4,26.6,23.4,26.6,23.3,26.6z
		 M23.3,24.8c-0.1,0-0.1-0.1-0.1-0.1v-0.9c0-0.1,0.1-0.1,0.1-0.1c0.1,0,0.1,0.1,0.1,0.1v0.9C23.4,24.8,23.4,24.8,23.3,24.8z
		 M23.3,23.1c-0.1,0-0.1-0.1-0.1-0.1V22c0-0.1,0.1-0.1,0.1-0.1c0.1,0,0.1,0.1,0.1,0.1v0.9C23.4,23,23.4,23.1,23.3,23.1z M23.3,21.3
		c-0.1,0-0.1-0.1-0.1-0.1v-0.9c0-0.1,0.1-0.1,0.1-0.1c0.1,0,0.1,0.1,0.1,0.1v0.9C23.4,21.2,23.4,21.3,23.3,21.3z M23.3,19.5
		c-0.1,0-0.1-0.1-0.1-0.1v-0.9c0-0.1,0.1-0.1,0.1-0.1c0.1,0,0.1,0.1,0.1,0.1v0.9C23.4,19.4,23.4,19.5,23.3,19.5z M22.7,18
		C22.7,18,22.7,18,22.7,18l-0.9-0.2c-0.1,0-0.1-0.1-0.1-0.2c0-0.1,0.1-0.1,0.2-0.1l0.9,0.2c0.1,0,0.1,0.1,0.1,0.2
		C22.9,18,22.8,18,22.7,18z M21,17.6C21,17.6,21,17.6,21,17.6l-0.9-0.2c-0.1,0-0.1-0.1-0.1-0.2c0-0.1,0.1-0.1,0.2-0.1l0.9,0.2
		c0.1,0,0.1,0.1,0.1,0.2C21.1,17.6,21.1,17.6,21,17.6z M19.3,17.2C19.3,17.2,19.3,17.2,19.3,17.2L18.4,17c-0.1,0-0.1-0.1-0.1-0.2
		c0-0.1,0.1-0.1,0.2-0.1l0.9,0.2c0.1,0,0.1,0.1,0.1,0.2C19.4,17.2,19.3,17.2,19.3,17.2z M17.5,16.8C17.5,16.8,17.5,16.8,17.5,16.8
		l-0.9-0.2c-0.1,0-0.1-0.1-0.1-0.2c0-0.1,0.1-0.1,0.2-0.1l0.9,0.2c0.1,0,0.1,0.1,0.1,0.2C17.7,16.8,17.6,16.8,17.5,16.8z M15.8,16.4
		C15.8,16.4,15.8,16.4,15.8,16.4l-0.9-0.2c-0.1,0-0.1-0.1-0.1-0.2c0-0.1,0.1-0.1,0.2-0.1l0.9,0.2c0.1,0,0.1,0.1,0.1,0.2
		C15.9,16.4,15.9,16.4,15.8,16.4z M14.1,16C14.1,16,14,16,14.1,16l-0.9-0.2c-0.1,0-0.1-0.1-0.1-0.2c0-0.1,0.1-0.1,0.2-0.1l0.9,0.2
		c0.1,0,0.1,0.1,0.1,0.2C14.2,16,14.1,16,14.1,16z M12.3,15.6C12.3,15.6,12.3,15.6,12.3,15.6l-0.9-0.2c-0.1,0-0.1-0.1-0.1-0.2
		c0-0.1,0.1-0.1,0.2-0.1l0.9,0.2c0.1,0,0.1,0.1,0.1,0.2C12.5,15.6,12.4,15.6,12.3,15.6z M10.6,15.2C10.6,15.2,10.6,15.2,10.6,15.2
		L9.7,15c-0.1,0-0.1-0.1-0.1-0.2c0-0.1,0.1-0.1,0.2-0.1l0.9,0.2c0.1,0,0.1,0.1,0.1,0.2C10.7,15.2,10.7,15.2,10.6,15.2z M8.9,14.8
		C8.9,14.8,8.8,14.8,8.9,14.8L8,14.6c-0.1,0-0.1-0.1-0.1-0.2c0-0.1,0.1-0.1,0.2-0.1l0.9,0.2C9,14.6,9,14.6,9,14.7
		C9,14.8,8.9,14.8,8.9,14.8z M7.1,14.4C7.1,14.4,7.1,14.4,7.1,14.4l-0.9-0.2c-0.1,0-0.1-0.1-0.1-0.2c0-0.1,0.1-0.1,0.2-0.1l0.9,0.2
		c0.1,0,0.1,0.1,0.1,0.2C7.2,14.4,7.2,14.4,7.1,14.4z M5.4,14C5.4,14,5.4,14,5.4,14l-0.9-0.2c-0.1,0-0.1-0.1-0.1-0.2
		c0-0.1,0.1-0.1,0.2-0.1l0.9,0.2c0.1,0,0.1,0.1,0.1,0.2C5.5,14,5.5,14,5.4,14z"/>
	<path class="st6" d="M24.4,18.4V19c0-0.8-0.5-1.4-1.2-1.6L4.4,13.1c0,0,0,0,0,0c-0.7-0.2-1.1-0.6-0.9-1.2c0.1,0.3,0.4,0.6,0.9,0.7
		c0,0,0,0,0,0l18.7,4.3C23.9,17,24.4,17.7,24.4,18.4z"/>
	<path class="st3" d="M23.8,19.5v12.1c0,0.6-0.5,1.1-1.1,1.1c-0.1,0-0.1,0-0.2,0l0,0L4.8,28.5c-0.1,0-0.2,0-0.2-0.1
		C12.2,28.6,19.8,25.5,23.8,19.5z"/>
	<path class="st6" d="M3.7,13.5C3.7,13.5,3.6,13.5,3.7,13.5c-0.2-0.1-0.3-0.2-0.5-0.3c-0.1-0.1,0-0.1,0-0.2c0.1-0.1,0.1,0,0.2,0
		c0.1,0.1,0.2,0.2,0.3,0.2c0.1,0,0.1,0.1,0.1,0.2C3.8,13.5,3.7,13.5,3.7,13.5z"/>
	<path class="st6" d="M3.5,27.4c0,0-0.1,0-0.1-0.1c-0.1-0.1-0.2-0.3-0.2-0.5c0-0.1,0-0.1,0.1-0.2c0.1,0,0.1,0,0.2,0.1
		c0,0.1,0.1,0.2,0.2,0.3C3.7,27.3,3.7,27.3,3.5,27.4C3.6,27.4,3.6,27.4,3.5,27.4z"/>
	<path class="st4" d="M22.8,33.4c-0.1,0-0.2,0-0.4,0c0,0,0,0-0.1,0L4.6,29.2c-0.9-0.2-1.5-1-1.5-1.9V12c0-0.3,0.1-0.7,0.3-1
		C3.5,11,3.6,10.9,3.7,11c0.1,0.1,0.1,0.2,0.1,0.3c-0.1,0.2-0.1,0.4,0,0.6c0.1,0.2,0.4,0.4,0.7,0.5c0,0,0,0,0,0l18.7,4.3
		c0.8,0.2,1.4,0.9,1.4,1.8v13.2c0,0.6-0.2,1.1-0.7,1.4C23.6,33.3,23.2,33.4,22.8,33.4z M3.5,12.3v15c0,0.7,0.5,1.3,1.2,1.5L22.4,33
		c0,0,0,0,0,0c0.4,0.1,0.9,0,1.2-0.3c0.3-0.3,0.5-0.7,0.5-1.1V18.4c0-0.7-0.4-1.2-1.1-1.4L4.4,12.8c0,0,0,0,0,0
		C4,12.7,3.7,12.5,3.5,12.3z"/>
	<path class="st5" d="M3.6,12c0.1,0.3,0.5,0.5,0.9,0.6l18.7,4.3c0.5,0.1,0.8,0.4,1.1,0.8c0.1,0.2,0.2,0.5,0.2,0.7v13.2
		c0,0.9-0.7,1.6-1.6,1.6c-0.1,0-0.2,0-0.3,0l0,0.1c0.3,0.1,0.5,0.1,0.8,0.1c0.7,0,1.3-0.2,1.8-0.7c0.5-0.5,0.7-1.3,0.6-2.1V17.3
		c0-0.2,0-0.4-0.1-0.6c-0.2-0.5-0.6-0.9-1.2-1l-19-4.2h0.3l-2.2-0.3C3.4,11.5,3.4,11.8,3.6,12z"/>
	<path class="st8" d="M25.6,30.5c0.1,2.1-1.3,3.1-3.2,2.7c1,0.2,1.9-0.6,1.9-1.6V18.4c0-0.3-0.1-0.5-0.2-0.7c-0.1-1,0.6-1.5,1.3-0.9
		c0.1,0.2,0.1,0.4,0.1,0.6V30.5z"/>
	<path class="st4" d="M4.9,11.5c0,0.1,0.1,0.2,0.2,0.2L24.3,16c0.6,0.2,1.1,0.7,1.1,1.4v13.1c0,0,0,0,0,0c0.1,0.9-0.2,1.6-0.7,2.1
		c-0.2,0.2-0.4,0.3-0.7,0.4c0.4-0.3,0.6-0.8,0.6-1.4V18.4c0-0.9-0.6-1.6-1.4-1.8L4.5,12.3c0,0,0,0,0,0c-0.3-0.1-0.6-0.2-0.7-0.5
		c-0.1-0.2-0.1-0.4,0-0.6l-0.4-0.1c-0.1,0.3-0.1,0.6,0,0.8c0.2,0.3,0.5,0.6,1,0.7c0,0,0,0,0,0L23.1,17c0.6,0.2,1.1,0.7,1.1,1.4v13.2
		c0,0.4-0.2,0.8-0.5,1.1c-0.3,0.3-0.8,0.4-1.2,0.3c-0.1,0-0.2,0-0.2,0.2c0,0.1,0,0.2,0.2,0.2c0.3,0.1,0.6,0.1,0.8,0.1
		c0.7,0,1.3-0.2,1.7-0.6c0.6-0.5,0.9-1.4,0.9-2.4V17.3c0-0.9-0.6-1.6-1.4-1.8L7,11.7h0L4.9,11.5C4.9,11.5,4.9,11.5,4.9,11.5z"/>
	<defs>
		<filter id="Adobe_OpacityMaskFilter_2_" filterUnits="userSpaceOnUse" x="0" y="21.4" width="5.7" height="7.6">
			<feColorMatrix  type="matrix" values="1 0 0 0 0  0 1 0 0 0  0 0 1 0 0  0 0 0 1 0"/>
		</filter>
	</defs>
	<mask maskUnits="userSpaceOnUse" x="0" y="21.4" width="5.7" height="7.6" id="mask2_1096_1791_1_">
		<path class="st15" d="M-17.2,6.2h39.6v39.6h-39.6V6.2z"/>
	</mask>
	<g class="st16">
		<path class="st17" d="M4.2,23c1.3,1.7,1.9,3.9,1.3,5c-0.5,1.1-2,0.7-3.3-1c-1.3-1.7-1.9-3.9-1.3-5C1.4,20.9,2.9,21.3,4.2,23z"/>
		<path class="st18" d="M3.9,23.6c0.9,1.1,1.3,2.7,0.9,3.5c-0.4,0.8-1.4,0.5-2.3-0.7c-0.9-1.1-1.3-2.7-0.9-3.5
			C2,22.2,3,22.5,3.9,23.6z"/>
		<path class="st19" d="M3,25.8L3,25.6c0.2,0.2,0.3,0.2,0.4,0.1c0.1-0.1,0-0.3-0.1-0.6c-0.1-0.2-0.2-0.4-0.1-0.4
			c0-0.1,0.1-0.1,0.2,0.1c0.1,0.1,0.2,0.3,0.2,0.3l0.1,0c0-0.1-0.1-0.2-0.2-0.3l0.1-0.1l-0.1-0.1l-0.1,0.2c-0.2-0.2-0.3-0.2-0.4-0.1
			c-0.1,0.1,0,0.3,0.2,0.6c0.1,0.2,0.1,0.3,0.1,0.4c0,0.1-0.2,0-0.3-0.1c-0.1-0.1-0.2-0.3-0.2-0.4l-0.1,0c0,0.1,0.1,0.3,0.2,0.4
			l-0.1,0.2L3,25.8z"/>
		<path class="st17" d="M4.1,23c1.3,1.7,1.9,3.9,1.3,5c-0.5,1.1-2,0.7-3.3-1c-1.3-1.7-1.9-3.9-1.3-5C1.4,21,2.8,21.4,4.1,23z"/>
		<path class="st18" d="M3.8,23.7c0.9,1.1,1.3,2.7,0.9,3.5c-0.4,0.8-1.4,0.5-2.3-0.7c-0.9-1.1-1.3-2.7-0.9-3.5S2.9,22.5,3.8,23.7z"
			/>
		<path class="st19" d="M2.9,25.8L3,25.7c0.2,0.2,0.3,0.2,0.4,0.1c0.1-0.1,0-0.3-0.1-0.6c-0.1-0.2-0.2-0.4-0.1-0.4
			c0-0.1,0.1-0.1,0.2,0.1c0.1,0.1,0.2,0.3,0.2,0.3l0.1,0c0-0.1-0.1-0.2-0.2-0.3l0.1-0.1l-0.1-0.1l-0.1,0.2c-0.2-0.2-0.3-0.2-0.4-0.1
			c-0.1,0.1,0,0.3,0.2,0.6c0.1,0.2,0.1,0.3,0.1,0.4c0,0.1-0.2,0-0.3-0.1c-0.1-0.1-0.2-0.3-0.2-0.4l-0.1,0c0,0.1,0.1,0.3,0.2,0.4
			l-0.1,0.2L2.9,25.8z"/>
		<path class="st17" d="M4,23.1c1.3,1.7,1.9,3.9,1.3,5c-0.5,1.1-2,0.7-3.3-1c-1.3-1.7-1.9-3.9-1.3-5C1.3,21,2.8,21.4,4,23.1z"/>
		<path class="st18" d="M3.7,23.7c0.9,1.1,1.3,2.7,0.9,3.5c-0.4,0.8-1.4,0.5-2.3-0.7c-0.9-1.1-1.3-2.7-0.9-3.5
			C1.8,22.3,2.9,22.6,3.7,23.7z"/>
		<path class="st19" d="M2.8,25.9l0.1-0.2c0.2,0.2,0.3,0.2,0.4,0.1c0.1-0.1,0-0.3-0.1-0.6C3,24.9,3,24.8,3,24.8
			c0-0.1,0.1-0.1,0.2,0.1c0.1,0.1,0.2,0.3,0.2,0.3l0.1,0c0-0.1-0.1-0.2-0.2-0.3l0.1-0.1l-0.1-0.1l-0.1,0.2c-0.2-0.2-0.3-0.2-0.4-0.1
			c-0.1,0.1,0,0.3,0.2,0.6c0.1,0.2,0.1,0.3,0.1,0.4c0,0.1-0.2,0-0.3-0.1c-0.1-0.1-0.2-0.3-0.2-0.4l-0.1,0c0,0.1,0.1,0.3,0.2,0.4
			l-0.1,0.2L2.8,25.9z"/>
		<path class="st17" d="M4,23.1c1.3,1.7,1.9,3.9,1.3,5c-0.5,1.1-2,0.7-3.3-1c-1.3-1.7-1.9-3.9-1.3-5C1.2,21,2.7,21.5,4,23.1z"/>
		<path class="st18" d="M3.7,23.8c0.9,1.1,1.3,2.7,0.9,3.5c-0.4,0.8-1.4,0.5-2.3-0.7c-0.9-1.1-1.3-2.7-0.9-3.5
			C1.8,22.3,2.8,22.6,3.7,23.8z"/>
		<path class="st19" d="M2.7,25.9l0.1-0.2C3,26,3.1,26,3.2,25.8c0.1-0.1,0-0.3-0.1-0.6C3,25,2.9,24.9,2.9,24.8
			c0-0.1,0.1-0.1,0.2,0.1c0.1,0.1,0.2,0.3,0.2,0.3l0.1,0c0-0.1-0.1-0.2-0.2-0.3l0.1-0.1l-0.1-0.1l-0.1,0.2c-0.2-0.2-0.3-0.2-0.4-0.1
			c-0.1,0.1,0,0.3,0.2,0.6c0.1,0.2,0.1,0.3,0.1,0.4c0,0.1-0.2,0-0.3-0.1c-0.1-0.1-0.2-0.3-0.2-0.4l-0.1,0c0,0.1,0.1,0.3,0.2,0.4
			l-0.1,0.2L2.7,25.9z"/>
		<path class="st17" d="M3.9,23.2c1.3,1.7,1.9,3.9,1.3,5c-0.5,1.1-2,0.7-3.3-1s-1.9-3.9-1.3-5C1.1,21.1,2.6,21.5,3.9,23.2z"/>
		<path class="st18" d="M3.6,23.8c0.9,1.1,1.3,2.7,0.9,3.5c-0.4,0.8-1.4,0.5-2.3-0.7c-0.9-1.1-1.3-2.7-0.9-3.5
			C1.7,22.4,2.7,22.7,3.6,23.8z"/>
		<path class="st19" d="M2.7,25.9l0.1-0.2C2.9,26,3.1,26,3.1,25.9c0.1-0.1,0-0.3-0.1-0.6c-0.1-0.2-0.2-0.4-0.1-0.4
			c0-0.1,0.1-0.1,0.2,0.1c0.1,0.1,0.2,0.3,0.2,0.3l0.1,0c0-0.1-0.1-0.2-0.2-0.3l0.1-0.1l-0.1-0.1l-0.1,0.2c-0.2-0.2-0.3-0.2-0.4-0.1
			c-0.1,0.1,0,0.3,0.2,0.6C3,25.5,3,25.6,3,25.7c0,0.1-0.2,0-0.3-0.1c-0.1-0.1-0.2-0.3-0.2-0.4l-0.1,0c0,0.1,0.1,0.3,0.2,0.4
			l-0.1,0.2L2.7,25.9z"/>
		<path class="st17" d="M3.8,23.2c1.3,1.7,1.9,3.9,1.3,5c-0.5,1.1-2,0.7-3.3-1c-1.3-1.7-1.9-3.9-1.3-5C1.1,21.1,2.5,21.5,3.8,23.2z"
			/>
		<path class="st18" d="M3.5,23.8c0.9,1.1,1.3,2.7,0.9,3.5C4,28.1,3,27.8,2.1,26.6c-0.9-1.1-1.3-2.7-0.9-3.5
			C1.6,22.4,2.6,22.7,3.5,23.8z"/>
		<path class="st19" d="M2.6,26l0.1-0.2C2.8,26,3,26,3,25.9c0.1-0.1,0-0.3-0.1-0.6c-0.1-0.2-0.2-0.4-0.1-0.4c0-0.1,0.1-0.1,0.2,0.1
			c0.1,0.1,0.2,0.3,0.2,0.3l0.1,0c0-0.1-0.1-0.2-0.2-0.3l0.1-0.1l-0.1-0.1L3,24.8c-0.2-0.2-0.3-0.2-0.4-0.1c-0.1,0.1,0,0.3,0.2,0.6
			c0.1,0.2,0.1,0.3,0.1,0.4c0,0.1-0.2,0-0.3-0.1c-0.1-0.1-0.2-0.3-0.2-0.4l-0.1,0c0,0.1,0.1,0.3,0.2,0.4l-0.1,0.2L2.6,26z"/>
		<path class="st17" d="M3.7,23.2c1.3,1.7,1.9,3.9,1.3,5c-0.5,1.1-2,0.7-3.3-1c-1.3-1.7-1.9-3.9-1.3-5C1,21.2,2.5,21.6,3.7,23.2z"/>
		<path class="st18" d="M3.4,23.9c0.9,1.1,1.3,2.7,0.9,3.5c-0.4,0.8-1.4,0.5-2.3-0.7c-0.9-1.1-1.3-2.7-0.9-3.5
			C1.5,22.4,2.5,22.7,3.4,23.9z"/>
		<path class="st19" d="M2.5,26l0.1-0.2C2.8,26.1,2.9,26.1,3,26c0.1-0.1,0-0.3-0.1-0.6c-0.1-0.2-0.2-0.4-0.1-0.4
			c0-0.1,0.1-0.1,0.2,0.1c0.1,0.1,0.2,0.3,0.2,0.3l0.1,0c0-0.1-0.1-0.2-0.2-0.3l0.1-0.1L3,24.7l-0.1,0.2c-0.2-0.2-0.3-0.2-0.4-0.1
			c-0.1,0.1,0,0.3,0.2,0.6c0.1,0.2,0.1,0.3,0.1,0.4c0,0.1-0.2,0-0.3-0.1c-0.1-0.1-0.2-0.3-0.2-0.4l-0.1,0c0,0.1,0.1,0.3,0.2,0.4
			l-0.1,0.2L2.5,26z"/>
		<path class="st17" d="M3.7,23.3c1.3,1.7,1.9,3.9,1.3,5c-0.5,1.1-2,0.7-3.3-1c-1.3-1.7-1.9-3.9-1.3-5C0.9,21.2,2.4,21.6,3.7,23.3z"
			/>
		<path class="st18" d="M3.3,23.9c0.9,1.1,1.3,2.7,0.9,3.5c-0.4,0.8-1.4,0.5-2.3-0.7c-0.9-1.1-1.3-2.7-0.9-3.5
			C1.5,22.5,2.5,22.8,3.3,23.9z"/>
		<path class="st19" d="M2.4,26.1l0.1-0.2c0.2,0.2,0.3,0.2,0.4,0.1c0.1-0.1,0-0.3-0.1-0.6c-0.1-0.2-0.2-0.4-0.1-0.4
			c0-0.1,0.1-0.1,0.2,0.1C3,25.2,3,25.3,3.1,25.4l0.1,0c0-0.1-0.1-0.2-0.2-0.3L3,24.9l-0.1-0.1l-0.1,0.2c-0.2-0.2-0.3-0.2-0.4-0.1
			c-0.1,0.1,0,0.3,0.2,0.6c0.1,0.2,0.1,0.3,0.1,0.4c0,0.1-0.2,0-0.3-0.1c-0.1-0.1-0.2-0.3-0.2-0.4l-0.1,0c0,0.1,0.1,0.3,0.2,0.4
			l-0.1,0.2L2.4,26.1z"/>
		<path class="st17" d="M3.6,23.3c1.3,1.7,1.9,3.9,1.3,5c-0.5,1.1-2,0.7-3.3-1c-1.3-1.7-1.9-3.9-1.3-5C0.8,21.2,2.3,21.7,3.6,23.3z"
			/>
		<path class="st18" d="M3.3,24c0.9,1.1,1.3,2.7,0.9,3.5c-0.4,0.8-1.4,0.5-2.3-0.7C1,25.6,0.6,24.1,1,23.3C1.4,22.5,2.4,22.8,3.3,24
			z"/>
		<path class="st19" d="M2.4,26.1l0.1-0.2c0.2,0.2,0.3,0.2,0.4,0.1c0.1-0.1,0-0.3-0.1-0.6c-0.1-0.2-0.2-0.4-0.1-0.4
			c0-0.1,0.1-0.1,0.2,0.1C2.9,25.2,3,25.4,3,25.4l0.1,0C3,25.3,3,25.2,2.9,25L3,24.9l-0.1-0.1l-0.1,0.2c-0.2-0.2-0.3-0.2-0.4-0.1
			c-0.1,0.1,0,0.3,0.2,0.6c0.1,0.2,0.1,0.3,0.1,0.4c0,0.1-0.2,0-0.3-0.1c-0.1-0.1-0.2-0.3-0.2-0.4l-0.1,0c0,0.1,0.1,0.3,0.2,0.4
			L2.3,26L2.4,26.1z"/>
		<path class="st17" d="M3.5,23.4c1.3,1.7,1.9,3.9,1.3,5c-0.5,1.1-2,0.7-3.3-1c-1.3-1.7-1.9-3.9-1.3-5C0.8,21.3,2.2,21.7,3.5,23.4z"
			/>
		<path class="st18" d="M3.2,24c0.9,1.1,1.3,2.7,0.9,3.5c-0.4,0.8-1.4,0.5-2.3-0.7c-0.9-1.1-1.3-2.7-0.9-3.5
			C1.3,22.6,2.3,22.9,3.2,24z"/>
		<path class="st19" d="M2.3,26.1L2.4,26c0.2,0.2,0.3,0.2,0.4,0.1c0.1-0.1,0-0.3-0.1-0.6c-0.1-0.2-0.2-0.4-0.1-0.4
			c0-0.1,0.1-0.1,0.2,0.1c0.1,0.1,0.2,0.3,0.2,0.3l0.1,0c0-0.1-0.1-0.2-0.2-0.3l0.1-0.1l-0.1-0.1l-0.1,0.2c-0.2-0.2-0.3-0.2-0.4-0.1
			c-0.1,0.1,0,0.3,0.2,0.6c0.1,0.2,0.1,0.3,0.1,0.4c0,0.1-0.2,0-0.3-0.1c-0.1-0.1-0.2-0.3-0.2-0.4l-0.1,0c0,0.1,0.1,0.3,0.2,0.4
			L2.2,26L2.3,26.1z"/>
	</g>
	<defs>
		<filter id="Adobe_OpacityMaskFilter_3_" filterUnits="userSpaceOnUse" x="27.6" y="15.2" width="6" height="8">
			<feColorMatrix  type="matrix" values="1 0 0 0 0  0 1 0 0 0  0 0 1 0 0  0 0 0 1 0"/>
		</filter>
	</defs>
	<mask maskUnits="userSpaceOnUse" x="27.6" y="15.2" width="6" height="8" id="mask3_1096_1791_1_">
		<path class="st20" d="M51.8-0.8H10V41h41.8V-0.8z"/>
	</mask>
	<g class="st21">
		<path class="st17" d="M29.2,16.9c-1.3,1.7-2,4.1-1.4,5.3c0.6,1.2,2.1,0.7,3.5-1c1.3-1.7,2-4.1,1.4-5.3
			C32.1,14.7,30.6,15.2,29.2,16.9z"/>
		<path class="st18" d="M29.5,17.6c-0.9,1.2-1.4,2.8-1,3.7c0.4,0.8,1.5,0.5,2.4-0.7c0.9-1.2,1.4-2.8,1-3.7
			C31.5,16.1,30.5,16.4,29.5,17.6z"/>
		<path class="st19" d="M30.5,19.9l-0.1-0.2c-0.2,0.2-0.4,0.2-0.4,0.1c-0.1-0.1,0-0.3,0.1-0.6c0.1-0.3,0.2-0.4,0.1-0.5
			c0-0.1-0.1-0.1-0.3,0.1c-0.1,0.1-0.2,0.3-0.2,0.3l-0.1,0c0-0.1,0.1-0.2,0.2-0.4l-0.1-0.2l0.1-0.1l0.1,0.2c0.2-0.2,0.3-0.2,0.4-0.1
			c0.1,0.1,0,0.4-0.2,0.7c-0.1,0.2-0.2,0.4-0.1,0.4c0,0.1,0.2,0,0.3-0.1c0.1-0.1,0.2-0.3,0.2-0.4l0.1,0c0,0.1-0.1,0.3-0.2,0.4
			l0.1,0.2L30.5,19.9z"/>
		<path class="st17" d="M29.3,17c-1.3,1.7-2,4.1-1.4,5.3c0.6,1.2,2.1,0.7,3.5-1c1.3-1.7,2-4.1,1.4-5.3C32.2,14.8,30.6,15.2,29.3,17z
			"/>
		<path class="st18" d="M29.6,17.6c-0.9,1.2-1.4,2.8-1,3.7c0.4,0.8,1.5,0.5,2.4-0.7c0.9-1.2,1.4-2.8,1-3.7
			C31.6,16.1,30.5,16.4,29.6,17.6z"/>
		<path class="st19" d="M30.6,19.9l-0.1-0.2c-0.2,0.2-0.4,0.2-0.4,0.1c-0.1-0.1,0-0.3,0.1-0.6c0.1-0.3,0.2-0.4,0.1-0.5
			c0-0.1-0.1-0.1-0.3,0.1c-0.1,0.1-0.2,0.3-0.2,0.3l-0.1,0c0-0.1,0.1-0.2,0.2-0.4l-0.1-0.2l0.1-0.1l0.1,0.2c0.2-0.2,0.3-0.2,0.4-0.1
			c0.1,0.1,0,0.4-0.2,0.7c-0.1,0.2-0.2,0.4-0.1,0.4c0,0.1,0.2,0,0.3-0.1c0.1-0.1,0.2-0.3,0.2-0.4l0.1,0c0,0.1-0.1,0.3-0.2,0.4
			l0.1,0.2L30.6,19.9z"/>
		<path class="st17" d="M29.4,17c-1.3,1.7-2,4.1-1.4,5.3c0.6,1.2,2.1,0.7,3.5-1c1.3-1.7,2-4.1,1.4-5.3C32.3,14.8,30.7,15.3,29.4,17z
			"/>
		<path class="st18" d="M29.7,17.7c-0.9,1.2-1.4,2.8-1,3.7c0.4,0.8,1.5,0.5,2.4-0.7c0.9-1.2,1.4-2.8,1-3.7
			C31.7,16.2,30.6,16.5,29.7,17.7z"/>
		<path class="st19" d="M30.7,19.9l-0.1-0.2c-0.2,0.2-0.4,0.2-0.4,0.1c-0.1-0.1,0-0.3,0.1-0.6c0.1-0.3,0.2-0.4,0.1-0.5
			c0-0.1-0.1-0.1-0.3,0.1C30.1,19,30,19.2,30,19.2l-0.1,0c0-0.1,0.1-0.2,0.2-0.4L30,18.7l0.1-0.1l0.1,0.2c0.2-0.2,0.3-0.2,0.4-0.1
			c0.1,0.1,0,0.4-0.2,0.7c-0.1,0.2-0.2,0.4-0.1,0.4c0,0.1,0.2,0,0.3-0.1c0.1-0.1,0.2-0.3,0.2-0.4l0.1,0c0,0.1-0.1,0.3-0.2,0.4
			l0.1,0.2L30.7,19.9z"/>
		<path class="st17" d="M29.5,17c-1.3,1.7-2,4.1-1.4,5.3c0.6,1.2,2.1,0.7,3.5-1c1.3-1.7,2-4.1,1.4-5.3C32.4,14.8,30.8,15.3,29.5,17z
			"/>
		<path class="st18" d="M29.8,17.7c-0.9,1.2-1.4,2.8-1,3.7c0.4,0.8,1.5,0.5,2.4-0.7c0.9-1.2,1.4-2.8,1-3.7
			C31.8,16.2,30.7,16.5,29.8,17.7z"/>
		<path class="st19" d="M30.7,20l-0.1-0.2c-0.2,0.2-0.4,0.2-0.4,0.1c-0.1-0.1,0-0.3,0.1-0.6c0.1-0.3,0.2-0.4,0.1-0.5
			c0-0.1-0.1-0.1-0.3,0.1c-0.1,0.1-0.2,0.3-0.2,0.3l-0.1,0c0-0.1,0.1-0.2,0.2-0.4l-0.1-0.2l0.1-0.1l0.1,0.2c0.2-0.2,0.3-0.2,0.4-0.1
			c0.1,0.1,0,0.4-0.2,0.7c-0.1,0.2-0.2,0.4-0.1,0.4c0,0.1,0.2,0,0.3-0.1c0.1-0.1,0.2-0.3,0.2-0.4l0.1,0c0,0.1-0.1,0.3-0.2,0.4
			l0.1,0.2L30.7,20z"/>
		<path class="st17" d="M29.5,17.1c-1.3,1.7-2,4.1-1.4,5.3c0.6,1.2,2.1,0.7,3.5-1c1.3-1.7,2-4.1,1.4-5.3
			C32.4,14.9,30.9,15.3,29.5,17.1z"/>
		<path class="st18" d="M29.9,17.8c-0.9,1.2-1.4,2.8-1,3.7c0.4,0.8,1.5,0.5,2.4-0.7c0.9-1.2,1.4-2.8,1-3.7
			C31.9,16.2,30.8,16.6,29.9,17.8z"/>
		<path class="st19" d="M30.8,20l-0.1-0.2c-0.2,0.2-0.4,0.2-0.4,0.1c-0.1-0.1,0-0.3,0.1-0.6c0.1-0.3,0.2-0.4,0.1-0.5
			c0-0.1-0.1-0.1-0.3,0.1c-0.1,0.1-0.2,0.3-0.2,0.3l-0.1,0c0-0.1,0.1-0.2,0.2-0.4l-0.1-0.2l0.1-0.1l0.1,0.2c0.2-0.2,0.3-0.2,0.4-0.1
			c0.1,0.1,0,0.4-0.2,0.7c-0.1,0.2-0.2,0.4-0.1,0.4c0,0.1,0.2,0,0.3-0.1c0.1-0.1,0.2-0.3,0.2-0.4l0.1,0c0,0.1-0.1,0.3-0.2,0.4
			l0.1,0.2L30.8,20z"/>
		<path class="st17" d="M29.6,17.1c-1.3,1.7-2,4.1-1.4,5.3c0.6,1.2,2.1,0.7,3.5-1c1.3-1.7,2-4.1,1.4-5.3
			C32.5,14.9,31,15.4,29.6,17.1z"/>
		<path class="st18" d="M29.9,17.8c-0.9,1.2-1.4,2.8-1,3.7c0.4,0.8,1.5,0.5,2.4-0.7c0.9-1.2,1.4-2.8,1-3.7
			C31.9,16.3,30.9,16.6,29.9,17.8z"/>
		<path class="st19" d="M30.9,20.1l-0.1-0.2c-0.2,0.2-0.4,0.2-0.4,0.1c-0.1-0.1,0-0.3,0.1-0.6c0.1-0.3,0.2-0.4,0.1-0.5
			c0-0.1-0.1-0.1-0.3,0.1c-0.1,0.1-0.2,0.3-0.2,0.3l-0.1,0c0-0.1,0.1-0.2,0.2-0.4l-0.1-0.2l0.1-0.1l0.1,0.2c0.2-0.2,0.3-0.2,0.4-0.1
			c0.1,0.1,0,0.4-0.2,0.7c-0.1,0.2-0.2,0.4-0.1,0.4c0,0.1,0.2,0,0.3-0.1c0.1-0.1,0.2-0.3,0.2-0.4l0.1,0c0,0.1-0.1,0.3-0.2,0.4
			l0.1,0.2L30.9,20.1z"/>
		<path class="st17" d="M29.7,17.2c-1.3,1.7-2,4.1-1.4,5.3c0.6,1.2,2.1,0.7,3.5-1c1.3-1.7,2-4.1,1.4-5.3C32.6,15,31,15.4,29.7,17.2z
			"/>
		<path class="st18" d="M30,17.8c-0.9,1.2-1.4,2.8-1,3.7s1.5,0.5,2.4-0.7c0.9-1.2,1.4-2.8,1-3.7C32,16.3,30.9,16.6,30,17.8z"/>
		<path class="st19" d="M31,20.1l-0.1-0.2c-0.2,0.2-0.4,0.2-0.4,0.1c-0.1-0.1,0-0.3,0.1-0.6c0.1-0.3,0.2-0.4,0.1-0.5
			c0-0.1-0.1-0.1-0.3,0.1c-0.1,0.1-0.2,0.3-0.2,0.3l-0.1,0c0-0.1,0.1-0.2,0.2-0.4l-0.1-0.2l0.1-0.1l0.1,0.2c0.2-0.2,0.3-0.2,0.4-0.1
			c0.1,0.1,0,0.4-0.2,0.7c-0.1,0.2-0.2,0.4-0.1,0.4c0,0.1,0.2,0,0.3-0.1c0.1-0.1,0.2-0.3,0.2-0.4l0.1,0c0,0.1-0.1,0.3-0.2,0.4
			l0.1,0.2L31,20.1z"/>
		<path class="st17" d="M29.8,17.2c-1.3,1.7-2,4.1-1.4,5.3c0.6,1.2,2.1,0.7,3.5-1c1.3-1.7,2-4.1,1.4-5.3
			C32.7,15,31.1,15.5,29.8,17.2z"/>
		<path class="st18" d="M30.1,17.9c-0.9,1.2-1.4,2.8-1,3.7c0.4,0.8,1.5,0.5,2.4-0.7c0.9-1.2,1.4-2.8,1-3.7
			C32.1,16.4,31,16.7,30.1,17.9z"/>
		<path class="st19" d="M31.1,20.2L31,20c-0.2,0.2-0.4,0.2-0.4,0.1c-0.1-0.1,0-0.3,0.1-0.6c0.1-0.3,0.2-0.4,0.1-0.5
			c0-0.1-0.1-0.1-0.3,0.1c-0.1,0.1-0.2,0.3-0.2,0.3l-0.1,0c0-0.1,0.1-0.2,0.2-0.4l-0.1-0.2l0.1-0.1l0.1,0.2c0.2-0.2,0.3-0.2,0.4-0.1
			c0.1,0.1,0,0.4-0.2,0.7c-0.1,0.2-0.2,0.4-0.1,0.4c0,0.1,0.2,0,0.3-0.1c0.1-0.1,0.2-0.3,0.2-0.4l0.1,0c0,0.1-0.1,0.3-0.2,0.4
			l0.1,0.2L31.1,20.2z"/>
		<path class="st17" d="M29.9,17.3c-1.3,1.7-2,4.1-1.4,5.3c0.6,1.2,2.1,0.7,3.5-1c1.3-1.7,2-4.1,1.4-5.3
			C32.8,15.1,31.2,15.5,29.9,17.3z"/>
		<path class="st18" d="M30.2,17.9c-0.9,1.2-1.4,2.8-1,3.7c0.4,0.8,1.5,0.5,2.4-0.7c0.9-1.2,1.4-2.8,1-3.7
			C32.2,16.4,31.1,16.7,30.2,17.9z"/>
		<path class="st19" d="M31.1,20.2L31.1,20c-0.2,0.2-0.4,0.2-0.4,0.1c-0.1-0.1,0-0.3,0.1-0.6c0.1-0.3,0.2-0.4,0.1-0.5
			c0-0.1-0.1-0.1-0.3,0.1c-0.1,0.1-0.2,0.3-0.2,0.3l-0.1,0c0-0.1,0.1-0.2,0.2-0.4l-0.1-0.2l0.1-0.1l0.1,0.2c0.2-0.2,0.3-0.2,0.4-0.1
			c0.1,0.1,0,0.4-0.2,0.7c-0.1,0.2-0.2,0.4-0.1,0.4c0,0.1,0.2,0,0.3-0.1c0.1-0.1,0.2-0.3,0.2-0.4l0.1,0c0,0.1-0.1,0.3-0.2,0.4
			l0.1,0.2L31.1,20.2z"/>
		<path class="st17" d="M29.9,17.3c-1.3,1.7-2,4.1-1.4,5.3c0.6,1.2,2.1,0.7,3.5-1c1.3-1.7,2-4.1,1.4-5.3
			C32.8,15.1,31.3,15.6,29.9,17.3z"/>
		<path class="st18" d="M30.3,18c-0.9,1.2-1.4,2.8-1,3.7c0.4,0.8,1.5,0.5,2.4-0.7c0.9-1.2,1.4-2.8,1-3.7
			C32.3,16.5,31.2,16.8,30.3,18z"/>
		<path class="st19" d="M31.2,20.2l-0.1-0.2c-0.2,0.2-0.4,0.2-0.4,0.1c-0.1-0.1,0-0.3,0.1-0.6c0.1-0.3,0.2-0.4,0.1-0.5
			c0-0.1-0.1-0.1-0.3,0.1c-0.1,0.1-0.2,0.3-0.2,0.3l-0.1,0c0-0.1,0.1-0.2,0.2-0.4L30.6,19l0.1-0.1l0.1,0.2c0.2-0.2,0.3-0.2,0.4-0.1
			c0.1,0.1,0,0.4-0.2,0.7c-0.1,0.2-0.2,0.4-0.1,0.4c0,0.1,0.2,0,0.3-0.1c0.1-0.1,0.2-0.3,0.2-0.4l0.1,0c0,0.1-0.1,0.3-0.2,0.4
			l0.1,0.2L31.2,20.2z"/>
	</g>
</g>
</svg>
